<svg xmlns="http://www.w3.org/2000/svg" viewBox="0 0 27 27.1" class="mqGcZKF_l1fVY72vC2Xk" data-testid="iconED"><path d="M27.068 27.118h-27v-27h27v27zm-26-1h25v-25h-25v25z"></path><path d="M18.07 11.563a2.187 2.187 0 00-.792-.552 2.715 2.715 0 00-1.047-.193h-1.546v5.6h1.546c.388 0 .737-.065 1.047-.193.31-.129.574-.312.792-.553.218-.24.385-.533.5-.88.116-.347.174-.738.174-1.174 0-.436-.058-.828-.173-1.175a2.445 2.445 0 00-.5-.88z"></path><path d="M2.568 2.618v22h22v-22h-22zm9.323 8.2H8.36v2.206h2.783v1.138H8.36v2.25h3.53v1.182H6.876V9.641h5.016v1.177zm8.08 4.405a3.679 3.679 0 01-.82 1.26 3.674 3.674 0 01-1.27.82 4.5 4.5 0 01-1.65.291H13.2V9.641h3.03c.605 0 1.154.098 1.65.294s.918.47 1.27.82.625.769.82 1.257.29 1.023.29 1.606-.096 1.118-.29 1.605z"></path></svg>